<svg width="800" height="800" viewBox="0 0 800 800" fill="none" xmlns="http://www.w3.org/2000/svg">
<g clip-path="url(#clip0_6_2)">
<path d="M400 0C179.063 0 0 179.063 0 400C0 620.937 179.063 800 400 800C620.937 800 800 620.937 800 400C800 179.063 620.937 0 400 0ZM649.687 649.531C617.187 682.031 579.531 707.5 537.5 725.156C494.063 743.594 447.813 752.812 400 752.812C352.344 752.812 306.094 743.437 262.5 725.156C220.469 707.344 182.656 681.875 150.312 649.531C117.812 617.031 92.3438 579.375 74.6875 537.344C56.25 493.906 46.875 447.656 46.875 400C46.875 352.344 56.25 306.094 74.5312 262.5C92.3437 220.469 117.812 182.656 150.156 150.312C182.812 117.812 220.469 92.3437 262.5 74.5312C306.094 56.25 352.344 46.875 400 46.875C447.656 46.875 493.906 56.25 537.5 74.5312C579.531 92.3437 617.344 117.813 649.687 150.156C682.187 182.656 707.656 220.312 725.313 262.344C743.75 305.781 752.969 352.031 752.969 399.844C752.969 447.5 743.594 493.75 725.313 537.344C707.5 579.375 682.031 617.188 649.687 649.531Z" fill="white"/>
<path d="M452.813 263.594C468.906 263.594 486.094 268.594 486.094 268.594L496.406 207.344C496.406 207.344 474.531 199.844 422.344 199.844C390.313 199.844 371.719 212.031 358.125 230C345.312 247.031 344.844 274.375 344.844 292.031V332.188H303.438V392.031H344.844V599.844H422.344V392.031H483.75L488.281 332.188H422.344V285.469C422.344 269.375 436.719 263.594 452.813 263.594Z" fill="white"/>
</g>
<defs>
<clipPath id="clip0_6_2">
<rect width="800" height="800" fill="white"/>
</clipPath>
</defs>
</svg>
