<svg width="88" height="46" viewBox="0 0 88 46" fill="none" xmlns="http://www.w3.org/2000/svg">
<path d="M73.6862 37.1143H79.75C79.75 27.7186 75.9835 18.7077 69.2791 12.0639C62.5746 5.42017 53.4815 1.68774 44 1.68774C34.5185 1.68774 25.4254 5.42017 18.7209 12.0639C12.0165 18.7077 8.25 27.7186 8.25 37.1143H14.3137" stroke="black" stroke-width="2" stroke-linecap="round" stroke-linejoin="round"/>
<path d="M69.5097 37.1143C69.5097 30.4099 66.8221 23.9801 62.0381 19.2394C57.2541 14.4987 50.7656 11.8354 44 11.8354" stroke="black" stroke-width="2" stroke-linecap="round" stroke-linejoin="round"/>
<path d="M57.9936 37.1143C57.9936 33.4366 56.5193 29.9095 53.8949 27.3089C51.2706 24.7084 47.7113 23.2474 44 23.2474" stroke="black" stroke-width="2" stroke-linecap="round" stroke-linejoin="round"/>
<path d="M44 41.2599C46.3105 41.2599 48.1835 39.4039 48.1835 37.1143C48.1835 34.8248 46.3105 32.9687 44 32.9687C41.6895 32.9687 39.8165 34.8248 39.8165 37.1143C39.8165 39.4039 41.6895 41.2599 44 41.2599Z" stroke="black" stroke-width="2" stroke-linecap="round" stroke-linejoin="round"/>
<path d="M44 32.9687V4.73462" stroke="black" stroke-width="2" stroke-linecap="round" stroke-linejoin="round"/>
</svg>
