<svg width="62" height="64" viewBox="0 0 62 64" fill="none" xmlns="http://www.w3.org/2000/svg">
<path d="M31.5177 46.8371C30.5367 46.8371 29.6916 46.6465 28.9866 46.2654C28.2817 45.8843 27.698 45.338 27.2378 44.6245C26.7776 43.9109 26.4408 43.0323 26.2254 41.9948C26.0099 40.9531 25.9032 39.7652 25.9032 38.4292C25.9032 37.1101 26.0099 35.9244 26.2254 34.8764C26.4408 33.8283 26.7776 32.9475 27.2378 32.2318C27.698 31.5183 28.2817 30.9699 28.9866 30.5909C29.6916 30.2119 30.5367 30.0193 31.5177 30.0193C32.4988 30.0193 33.3439 30.2098 34.0489 30.5909C34.7538 30.972 35.3395 31.5183 35.7976 32.2318C36.2578 32.9454 36.5946 33.8262 36.808 34.8764C37.0255 35.9244 37.1301 37.1101 37.1301 38.4292C37.1301 39.7652 37.0235 40.9509 36.808 41.9948C36.5925 43.0323 36.2557 43.9109 35.7976 44.6245C35.3374 45.3401 34.7538 45.8864 34.0489 46.2654C33.3439 46.6465 32.4988 46.8371 31.5177 46.8371ZM31.5177 45.1369C32.162 45.1369 32.7143 45.0077 33.1745 44.7515C33.6347 44.4953 34.007 44.1354 34.2915 43.6675C34.576 43.2016 34.7852 42.6406 34.9253 41.98C35.0613 41.3194 35.1324 40.5783 35.1324 39.7547V37.0995C35.1324 36.2929 35.0634 35.5539 34.9253 34.887C34.7873 34.22 34.576 33.6526 34.2915 33.1868C34.007 32.7209 33.6368 32.3589 33.1745 32.1027C32.7143 31.8465 32.162 31.7195 31.5177 31.7195C30.8734 31.7195 30.3212 31.8486 29.861 32.1027C29.4008 32.3589 29.0305 32.7209 28.746 33.1868C28.4616 33.6526 28.2503 34.22 28.1122 34.887C27.9742 35.5518 27.9051 36.2929 27.9051 37.0995V39.7547C27.9051 40.5783 27.9742 41.3172 28.1122 41.98C28.2503 42.6406 28.4616 43.2016 28.746 43.6675C29.0305 44.1354 29.4008 44.4953 29.861 44.7515C30.3212 45.0098 30.8734 45.1369 31.5177 45.1369ZM31.5177 39.8034C30.9822 39.8034 30.6099 39.6954 30.4028 39.4773C30.1957 39.2613 30.0932 38.9967 30.0932 38.6875V38.1751C30.0932 37.866 30.1957 37.6014 30.4028 37.3833C30.6099 37.1652 30.9822 37.0593 31.5177 37.0593C32.0553 37.0593 32.4277 37.1673 32.6348 37.3833C32.8419 37.5992 32.9444 37.866 32.9444 38.1751V38.6875C32.9444 38.9967 32.8419 39.2613 32.6348 39.4773C32.4256 39.6954 32.0532 39.8034 31.5177 39.8034ZM40.3537 46.5576V44.8553H44.9557V31.7449H44.7946L40.7427 35.5645L39.6152 34.3322L43.8721 30.3009H46.8865V44.8574H51.1183V46.5597L40.3537 46.5576ZM0 23.2904H1.50612V0H0V23.2904ZM26.6082 0H25.1021V10.5866H26.6082V0ZM8.36735 31.7597H9.87348V8.46925H8.36735V31.7597ZM0 57.1674H1.50612V40.2289H0V57.1674ZM0 31.7597H1.50612V25.4077H0V31.7597ZM8.36735 46.5809H9.87348V33.877H8.36735V46.5809ZM8.36735 63.5194H9.87348V52.9328H8.36735V63.5194ZM8.36735 6.35194H9.87348V0H8.36735V6.35194ZM18.2408 6.35194H16.7347V23.2904H18.2408V6.35194ZM43.3429 0H41.8368V12.7039H43.345L43.3429 0ZM16.7347 61.4021H18.2408V52.9328H16.7347V61.4021ZM0 38.1116H1.50612V33.877H0V38.1116ZM18.2408 0H16.7347V4.23462H18.2408V0ZM34.9755 0H33.4694V6.35194H34.9755V0ZM34.9755 8.46925H33.4694V12.7039H34.9755V8.46925ZM8.36735 50.8155H9.87348V48.6982H8.36735V50.8155ZM26.6082 12.7039H25.1021V14.8212H26.6082V12.7039ZM62 63.0387L54.1096 53.1954C57.9523 49.0984 60.0776 43.7733 60.0776 38.1095C60.0776 26.0154 50.3568 16.1742 38.4062 16.1742C26.4576 16.1763 16.7347 26.0175 16.7347 38.1116C16.7347 50.2078 26.4555 60.047 38.4062 60.047C43.8742 60.047 49.0181 57.9868 53.0281 54.2646L60.8328 64L62 63.0387ZM18.2408 38.1116C18.2408 26.8581 27.288 17.7007 38.4062 17.7007C49.5243 17.7007 58.5715 26.8581 58.5715 38.1116C58.5715 43.5595 56.4734 48.6834 52.6641 52.5411C48.8507 56.3989 43.7885 58.5225 38.4062 58.5225C27.288 58.5225 18.2408 49.3651 18.2408 38.1116Z" fill="black"/>
</svg>
