<svg width="800" height="800" viewBox="0 0 800 800" fill="none" xmlns="http://www.w3.org/2000/svg">
<path d="M100 366.667C100 240.959 100 178.105 139.052 139.052C178.105 100 240.959 100 366.667 100H433.333C559.04 100 621.897 100 660.947 139.052C700 178.105 700 240.959 700 366.667V433.333C700 559.04 700 621.897 660.947 660.947C621.897 700 559.04 700 433.333 700H366.667C240.959 700 178.105 700 139.052 660.947C100 621.897 100 559.04 100 433.333V366.667Z" stroke="white" stroke-width="66.6667"/>
<path d="M550 300C577.614 300 600 277.614 600 250C600 222.386 577.614 200 550 200C522.386 200 500 222.386 500 250C500 277.614 522.386 300 550 300Z" fill="white"/>
<path d="M400 500C455.228 500 500 455.228 500 400C500 344.772 455.228 300 400 300C344.772 300 300 344.772 300 400C300 455.228 344.772 500 400 500Z" stroke="white" stroke-width="66.6667"/>
</svg>
