<svg width="74" height="62" viewBox="0 0 74 62" fill="none" xmlns="http://www.w3.org/2000/svg">
<mask id="path-1-inside-1_7_11" fill="white">
<path d="M23.7455 42.5994C28.2325 45.2314 33.3667 46.6226 38.5931 46.6226C43.8197 46.6226 48.9538 45.2314 53.4408 42.5994C57.7941 40.046 61.4461 36.3911 64.0022 32.0302C64.1878 31.7135 64.1878 31.321 64.0022 31.0043C61.4461 26.6433 57.794 22.9885 53.4408 20.4349C48.9538 17.803 43.8197 16.4117 38.5931 16.4117C33.3666 16.4117 28.2323 17.803 23.7455 20.4349C19.3922 22.9885 15.7401 26.6433 13.184 31.0043C12.9985 31.321 12.9985 31.7135 13.184 32.0302C15.7401 36.3911 19.3922 40.046 23.7455 42.5994ZM38.2001 44.5919C31.1886 44.3827 25.549 38.5983 25.549 31.5172C25.549 24.4361 31.1887 18.6517 38.2001 18.4425C38.3311 18.4406 38.4618 18.436 38.5931 18.436C38.7245 18.436 38.8551 18.4406 38.9862 18.4425C45.9976 18.6517 51.6373 24.4361 51.6373 31.5172C51.6373 38.5983 45.9976 44.3826 38.9862 44.5919C38.8551 44.5938 38.7245 44.5983 38.5931 44.5983C38.4618 44.5983 38.3311 44.5938 38.2001 44.5919ZM61.9539 31.5172C58.837 36.5771 54.1857 40.4274 48.816 42.6003C51.7904 39.8392 53.6558 35.8929 53.6558 31.5172C53.6558 27.1416 51.7904 23.1953 48.8159 20.4342C54.1856 22.607 58.837 26.4574 61.9539 31.5172ZM28.3704 20.4341C25.3959 23.1953 23.5304 27.1416 23.5304 31.5172C23.5304 35.8928 25.3959 39.839 28.3704 42.6003C23.0006 40.4274 18.3494 36.5772 15.2325 31.5172C18.3492 26.4572 23.0005 22.607 28.3704 20.4341Z"/>
</mask>
<path d="M23.7455 42.5994L25.7693 39.1492L25.7692 39.1492L23.7455 42.5994ZM53.4408 42.5994L51.417 39.1492L51.4169 39.1492L53.4408 42.5994ZM64.0022 32.0302L67.4531 34.0529L67.4535 34.0523L64.0022 32.0302ZM64.0022 31.0043L67.4535 28.9822L67.4531 28.9816L64.0022 31.0043ZM53.4408 20.4349L55.4646 16.9847L55.4646 16.9847L53.4408 20.4349ZM23.7455 20.4349L25.7693 23.8852L25.7694 23.8851L23.7455 20.4349ZM13.184 31.0043L9.73311 28.9817L9.73278 28.9822L13.184 31.0043ZM13.184 32.0302L9.73278 34.0523L9.73311 34.0528L13.184 32.0302ZM38.2001 44.5919L38.0808 48.5901L38.1116 48.591L38.1424 48.5915L38.2001 44.5919ZM38.2001 18.4425L38.1424 14.4429L38.1116 14.4434L38.0808 14.4443L38.2001 18.4425ZM38.9862 18.4425L39.1055 14.4443L39.0747 14.4434L39.0439 14.4429L38.9862 18.4425ZM38.9862 44.5919L39.0439 48.5915L39.0747 48.591L39.1056 48.5901L38.9862 44.5919ZM61.9539 31.5172L65.3596 33.6152L66.652 31.5172L65.3596 29.4193L61.9539 31.5172ZM48.816 42.6003L46.0946 39.6687L50.3164 46.3082L48.816 42.6003ZM48.8159 20.4342L50.3162 16.7263L46.0946 23.3659L48.8159 20.4342ZM28.3704 20.4341L31.0918 23.3657L26.87 16.7262L28.3704 20.4341ZM28.3704 42.6003L26.87 46.3082L31.0918 39.6687L28.3704 42.6003ZM15.2325 31.5172L11.8267 29.4194L10.5345 31.5173L11.8268 33.6151L15.2325 31.5172ZM23.7455 42.5994L21.7217 46.0497C26.8254 49.0434 32.6587 50.6226 38.5931 50.6226V46.6226V42.6226C34.0747 42.6226 29.6396 41.4194 25.7693 39.1492L23.7455 42.5994ZM38.5931 46.6226V50.6226C44.5277 50.6226 50.3609 49.0434 55.4646 46.0497L53.4408 42.5994L51.4169 39.1492C47.5467 41.4194 43.1117 42.6226 38.5931 42.6226V46.6226ZM53.4408 42.5994L55.4645 46.0497C60.4089 43.1497 64.5517 39.0028 67.4531 34.0529L64.0022 32.0302L60.5513 30.0075C58.3404 33.7795 55.1793 36.9424 51.417 39.1492L53.4408 42.5994ZM64.0022 32.0302L67.4535 34.0523C68.3707 32.4868 68.3707 30.5477 67.4535 28.9822L64.0022 31.0043L60.551 33.0264C60.0049 32.0943 60.0049 30.9402 60.551 30.0081L64.0022 32.0302ZM64.0022 31.0043L67.4531 28.9816C64.5517 24.0316 60.4087 19.8849 55.4646 16.9847L53.4408 20.4349L51.4169 23.8851C55.1792 26.0921 58.3404 29.2551 60.5513 33.027L64.0022 31.0043ZM53.4408 20.4349L55.4646 16.9847C50.3609 13.991 44.5277 12.4117 38.5931 12.4117V16.4117V20.4117C43.1117 20.4117 47.5467 21.6149 51.4169 23.8851L53.4408 20.4349ZM38.5931 16.4117V12.4117C32.6586 12.4117 26.8252 13.991 21.7216 16.9847L23.7455 20.4349L25.7694 23.8851C29.6394 21.615 34.0745 20.4117 38.5931 20.4117V16.4117ZM23.7455 20.4349L21.7217 16.9847C16.7774 19.8848 12.6344 24.0316 9.73311 28.9817L13.184 31.0043L16.635 33.0269C18.8457 29.255 22.0069 26.0921 25.7693 23.8852L23.7455 20.4349ZM13.184 31.0043L9.73278 28.9822C8.81555 30.5477 8.81555 32.4868 9.73278 34.0523L13.184 32.0302L16.6353 30.0081C17.1814 30.9402 17.1814 32.0943 16.6353 33.0264L13.184 31.0043ZM13.184 32.0302L9.73311 34.0528C12.6344 39.0028 16.7774 43.1497 21.7218 46.0497L23.7455 42.5994L25.7692 39.1492C22.0069 36.9424 18.8457 33.7795 16.635 30.0076L13.184 32.0302ZM38.2001 44.5919L38.3193 40.5936C33.4724 40.449 29.549 36.4385 29.549 31.5172H25.549H21.549C21.549 40.7581 28.9047 48.3163 38.0808 48.5901L38.2001 44.5919ZM25.549 31.5172H29.549C29.549 26.5959 33.4726 22.5853 38.3193 22.4407L38.2001 18.4425L38.0808 14.4443C28.9048 14.718 21.549 22.2763 21.549 31.5172H25.549ZM38.2001 18.4425L38.2577 22.4421C38.5155 22.4384 38.4835 22.436 38.5931 22.436V18.436V14.436C38.44 14.436 38.1468 14.4428 38.1424 14.4429L38.2001 18.4425ZM38.5931 18.436V22.436C38.7027 22.436 38.6708 22.4384 38.9286 22.4421L38.9862 18.4425L39.0439 14.4429C39.0395 14.4428 38.7462 14.436 38.5931 14.436V18.436ZM38.9862 18.4425L38.8669 22.4407C43.7137 22.5853 47.6373 26.5959 47.6373 31.5172H51.6373H55.6373C55.6373 22.2763 48.2815 14.718 39.1055 14.4443L38.9862 18.4425ZM51.6373 31.5172H47.6373C47.6373 36.4384 43.7138 40.449 38.8669 40.5936L38.9862 44.5919L39.1056 48.5901C48.2814 48.3162 55.6373 40.7582 55.6373 31.5172H51.6373ZM38.9862 44.5919L38.9286 40.5923C38.6707 40.596 38.7027 40.5983 38.5931 40.5983V44.5983V48.5983C38.7462 48.5983 39.0396 48.5915 39.0439 48.5915L38.9862 44.5919ZM38.5931 44.5983V40.5983C38.4835 40.5983 38.5156 40.596 38.2577 40.5923L38.2001 44.5919L38.1424 48.5915C38.1467 48.5915 38.4401 48.5983 38.5931 48.5983V44.5983ZM61.9539 31.5172L58.5482 29.4193C55.8881 33.7377 51.9119 37.0324 47.3156 38.8923L48.816 42.6003L50.3164 46.3082C56.4596 43.8224 61.7859 39.4166 65.3596 33.6152L61.9539 31.5172ZM48.816 42.6003L51.5374 45.5318C55.2911 42.0473 57.6558 37.0536 57.6558 31.5172H53.6558H49.6558C49.6558 34.7323 48.2897 37.631 46.0946 39.6687L48.816 42.6003ZM53.6558 31.5172H57.6558C57.6558 25.9809 55.2911 20.9872 51.5372 17.5026L48.8159 20.4342L46.0946 23.3659C48.2897 25.4035 49.6558 28.3022 49.6558 31.5172H53.6558ZM48.8159 20.4342L47.3155 24.1422C51.9118 26.0019 55.8881 29.2968 58.5482 33.6152L61.9539 31.5172L65.3596 29.4193C61.7859 23.6179 56.4595 19.212 50.3162 16.7263L48.8159 20.4342ZM28.3704 20.4341L25.649 17.5025C21.8952 20.9872 19.5304 25.9809 19.5304 31.5172H23.5304H27.5304C27.5304 28.3023 28.8966 25.4035 31.0918 23.3657L28.3704 20.4341ZM23.5304 31.5172H19.5304C19.5304 37.0535 21.8952 42.0472 25.649 45.5318L28.3704 42.6003L31.0918 39.6687C28.8965 37.6309 27.5304 34.7321 27.5304 31.5172H23.5304ZM28.3704 42.6003L29.8708 38.8923C25.2745 37.0324 21.2983 33.7378 18.6382 29.4194L15.2325 31.5172L11.8268 33.6151C15.4005 39.4167 20.7268 43.8224 26.87 46.3082L28.3704 42.6003ZM15.2325 31.5172L18.6382 33.6151C21.2982 29.2967 25.2744 26.0019 29.8708 24.1421L28.3704 20.4341L26.87 16.7262C20.7267 19.212 15.4003 23.6178 11.8267 29.4194L15.2325 31.5172Z" fill="#070707" mask="url(#path-1-inside-1_7_11)"/>
<mask id="path-3-inside-2_7_11" fill="white">
<path d="M45.3106 31.5171C45.3106 30.5543 45.1104 29.6219 44.7154 28.7458C44.4859 28.2366 43.8883 28.0102 43.3801 28.2404C42.8722 28.4706 42.6465 29.0701 42.8761 29.5795C43.1521 30.1919 43.292 30.8437 43.292 31.5171C43.292 34.1155 41.1841 36.2294 38.5931 36.2294C36.0021 36.2294 33.8942 34.1155 33.8942 31.5171C33.8942 28.9188 36.0021 26.8049 38.5931 26.8049C39.2645 26.8049 39.9146 26.9453 40.5254 27.2222C41.0334 27.4527 41.6312 27.2261 41.8608 26.7168C42.0903 26.2075 41.8647 25.6079 41.3568 25.3777C40.483 24.9814 39.5532 24.7806 38.5931 24.7806C34.8891 24.7806 31.8757 27.8027 31.8757 31.5171C31.8757 35.2315 34.8891 38.2536 38.5931 38.2536C42.297 38.2536 45.3106 35.2315 45.3106 31.5171Z"/>
</mask>
<path d="M44.7154 28.7458L40.1568 30.7999L40.1572 30.8007L44.7154 28.7458ZM43.3801 28.2404L41.317 23.6858L41.3157 23.6865L43.3801 28.2404ZM42.8761 29.5795L38.3176 31.6338L38.3176 31.6339L42.8761 29.5795ZM40.5254 27.2222L42.5914 22.669L42.59 22.6683L40.5254 27.2222ZM41.3568 25.3777L39.2919 29.9314L39.2924 29.9316L41.3568 25.3777ZM45.3106 31.5171H50.3106C50.3106 29.8472 49.9604 28.2142 49.2736 26.6909L44.7154 28.7458L40.1572 30.8007C40.2603 31.0296 40.3106 31.2614 40.3106 31.5171H45.3106ZM44.7154 28.7458L49.2739 26.6916C47.9118 23.6689 44.3517 22.3113 41.317 23.6858L43.3801 28.2404L45.4431 32.7949C43.425 33.7091 41.0601 32.8043 40.1568 30.7999L44.7154 28.7458ZM43.3801 28.2404L41.3157 23.6865C38.2888 25.0586 36.9588 28.6186 38.3176 31.6338L42.8761 29.5795L47.4346 27.5252C48.3342 29.5215 47.4556 31.8826 45.4444 32.7943L43.3801 28.2404ZM42.8761 29.5795L38.3176 31.6339C38.312 31.6214 38.3045 31.6008 38.299 31.575C38.2934 31.5491 38.292 31.5285 38.292 31.5171H43.292H48.292C48.292 30.137 48.0023 28.7848 47.4345 27.5251L42.8761 29.5795ZM43.292 31.5171H38.292C38.292 31.4373 38.3298 31.3612 38.3737 31.3171C38.4178 31.2728 38.5003 31.2294 38.5931 31.2294V36.2294V41.2294C43.9589 41.2294 48.292 36.8636 48.292 31.5171H43.292ZM38.5931 36.2294V31.2294C38.6859 31.2294 38.7684 31.2728 38.8126 31.3171C38.8565 31.3612 38.8942 31.4373 38.8942 31.5171H33.8942H28.8942C28.8942 36.8636 33.2274 41.2294 38.5931 41.2294V36.2294ZM33.8942 31.5171H38.8942C38.8942 31.597 38.8565 31.6731 38.8126 31.7172C38.7684 31.7615 38.6859 31.8049 38.5931 31.8049V26.8049V21.8049C33.2274 21.8049 28.8942 26.1707 28.8942 31.5171H33.8942ZM38.5931 26.8049V31.8049C38.5787 31.8049 38.5552 31.8032 38.5267 31.7971C38.4981 31.7909 38.4753 31.7826 38.4609 31.776L40.5254 27.2222L42.59 22.6683C41.3296 22.0969 39.9755 21.8049 38.5931 21.8049V26.8049ZM40.5254 27.2222L38.4595 31.7754C41.4976 33.1539 45.0577 31.7916 46.4191 28.7715L41.8608 26.7168L37.3025 24.6621C38.2046 22.6606 40.5692 21.7514 42.5914 22.669L40.5254 27.2222ZM41.8608 26.7168L46.4191 28.7715C47.7783 25.7561 46.448 22.1958 43.4212 20.8237L41.3568 25.3777L39.2924 29.9316C37.2813 29.0199 36.4024 26.6588 37.3025 24.6621L41.8608 26.7168ZM41.3568 25.3777L43.4217 20.824C41.8985 20.1333 40.2645 19.7806 38.5931 19.7806V24.7806V29.7806C38.8418 29.7806 39.0676 29.8296 39.2919 29.9314L41.3568 25.3777ZM38.5931 24.7806V19.7806C32.1143 19.7806 26.8757 25.0547 26.8757 31.5171H31.8757H36.8757C36.8757 30.5507 37.6639 29.7806 38.5931 29.7806V24.7806ZM31.8757 31.5171H26.8757C26.8757 37.9795 32.1143 43.2536 38.5931 43.2536V38.2536V33.2536C37.6639 33.2536 36.8757 32.4835 36.8757 31.5171H31.8757ZM38.5931 38.2536V43.2536C45.0718 43.2536 50.3106 37.9796 50.3106 31.5171H45.3106H40.3106C40.3106 32.4835 39.5223 33.2536 38.5931 33.2536V38.2536Z" fill="#070707" mask="url(#path-3-inside-2_7_11)"/>
<rect x="5.08545" y="3.8299" width="66.9914" height="55.4501" rx="7.5" stroke="black"/>
</svg>
