<svg width="800" height="800" viewBox="0 0 800 800" fill="none" xmlns="http://www.w3.org/2000/svg">
<path fill-rule="evenodd" clip-rule="evenodd" d="M316.538 237.725C306.221 231.83 293.546 231.872 283.269 237.836C272.992 243.8 266.667 254.784 266.667 266.667V533.333C266.667 545.217 272.992 556.2 283.269 562.163C293.546 568.127 306.221 568.17 316.538 562.273L549.87 428.94C560.257 423.007 566.667 411.963 566.667 400C566.667 388.037 560.257 376.993 549.87 371.06L316.538 237.725ZM466.147 400L333.333 475.893V324.106L466.147 400Z" fill="white"/>
<path fill-rule="evenodd" clip-rule="evenodd" d="M0 400C0 275.009 0 212.513 31.8305 168.702C42.1103 154.553 54.5533 142.11 68.7023 131.83C112.513 100 175.009 100 300 100H500C624.99 100 687.487 100 731.297 131.83C745.447 142.11 757.89 154.553 768.17 168.702C800 212.513 800 275.009 800 400C800 524.99 800 587.487 768.17 631.297C757.89 645.447 745.447 657.89 731.297 668.17C687.487 700 624.99 700 500 700H300C175.009 700 112.513 700 68.7023 668.17C54.5533 657.89 42.1103 645.447 31.8305 631.297C0 587.487 0 524.99 0 400ZM300 166.667H500C563.98 166.667 606.61 166.758 638.91 170.258C669.963 173.622 683.467 179.483 692.113 185.765C700.6 191.933 708.067 199.399 714.237 207.888C720.517 216.535 726.377 230.038 729.743 261.09C733.243 293.389 733.333 336.02 733.333 400C733.333 463.98 733.243 506.61 729.743 538.91C726.377 569.963 720.517 583.467 714.237 592.113C708.067 600.6 700.6 608.067 692.113 614.237C683.467 620.517 669.963 626.377 638.91 629.743C606.61 633.243 563.98 633.333 500 633.333H300C236.019 633.333 193.389 633.243 161.09 629.743C130.038 626.377 116.535 620.517 107.888 614.237C99.3987 608.067 91.933 600.6 85.765 592.113C79.4827 583.467 73.622 569.963 70.2577 538.91C66.7583 506.61 66.6667 463.98 66.6667 400C66.6667 336.02 66.7583 293.389 70.2577 261.09C73.622 230.038 79.4827 216.535 85.765 207.888C91.933 199.399 99.3987 191.933 107.888 185.765C116.535 179.483 130.038 173.622 161.09 170.258C193.389 166.758 236.019 166.667 300 166.667Z" fill="white"/>
</svg>
